<svg width="24" height="24" viewBox="0 0 24 24" fill="none" xmlns="http://www.w3.org/2000/svg">
<path d="M17.5 15.7093C17.5 17.0184 17.109 18.1457 16.3269 19.0912C15.5449 20.0367 14.529 20.6207 13.2793 20.8432V23.0893C13.2793 23.2091 13.244 23.3075 13.1732 23.3845C13.1025 23.4615 13.0121 23.5 12.9021 23.5H11.3105C11.2083 23.5 11.1199 23.4594 11.0452 23.3781C10.9706 23.2968 10.9332 23.2005 10.9332 23.0893V20.8432C10.4145 20.7662 9.91344 20.6336 9.43007 20.4453C8.9467 20.2571 8.54782 20.0667 8.23343 19.8742C7.91904 19.6816 7.62823 19.4763 7.361 19.2581C7.09377 19.0399 6.91104 18.8795 6.81279 18.7768C6.71454 18.6741 6.64577 18.5971 6.60647 18.5458C6.47286 18.3661 6.465 18.1907 6.5829 18.0195L7.79722 16.2868C7.85223 16.2013 7.94262 16.1499 8.06838 16.1328C8.18627 16.1157 8.28059 16.1542 8.35132 16.2483L8.3749 16.274C9.26305 17.1211 10.218 17.6559 11.2398 17.8783C11.5306 17.9468 11.8214 17.981 12.1122 17.981C12.7488 17.981 13.3088 17.7971 13.7922 17.4291C14.2756 17.0612 14.5172 16.5392 14.5172 15.8633C14.5172 15.6237 14.4583 15.3969 14.3404 15.183C14.2225 14.9691 14.0909 14.7894 13.9455 14.644C13.8001 14.4985 13.5702 14.3381 13.2558 14.1627C12.9414 13.9873 12.682 13.8504 12.4777 13.752C12.2733 13.6536 11.9589 13.5145 11.5345 13.3348C11.228 13.1979 10.9863 13.091 10.8094 13.014C10.6326 12.9369 10.3909 12.8236 10.0844 12.6738C9.77786 12.5241 9.53224 12.3915 9.34754 12.2759C9.16284 12.1604 8.9408 12.0086 8.68143 11.8203C8.42206 11.6321 8.21182 11.4502 8.05069 11.2748C7.88957 11.0994 7.71862 10.8898 7.53785 10.6459C7.35707 10.4021 7.21756 10.1539 7.11932 9.90151C7.02107 9.64909 6.93855 9.36458 6.87174 9.04799C6.80493 8.7314 6.77153 8.39769 6.77153 8.04688C6.77153 6.86607 7.15665 5.83073 7.9269 4.94085C8.69715 4.05097 9.69926 3.47768 10.9332 3.22098V0.910714C10.9332 0.799479 10.9706 0.703218 11.0452 0.621931C11.1199 0.540644 11.2083 0.5 11.3105 0.5H12.9021C13.0121 0.5 13.1025 0.538504 13.1732 0.615513C13.244 0.692522 13.2793 0.790923 13.2793 0.910714V3.16964C13.7274 3.22098 14.1616 3.31938 14.5821 3.46484C15.0026 3.61031 15.3445 3.75363 15.6078 3.89481C15.8711 4.03599 16.1206 4.19643 16.3564 4.37612C16.5922 4.5558 16.7455 4.67987 16.8162 4.74833C16.8869 4.81678 16.9459 4.87667 16.9931 4.92801C17.1267 5.08203 17.1463 5.24461 17.052 5.41574L16.097 7.28962C16.0342 7.41797 15.9438 7.48642 15.8259 7.49498C15.7159 7.52065 15.6097 7.4907 15.5076 7.40513C15.484 7.37946 15.427 7.32813 15.3366 7.25112C15.2462 7.17411 15.093 7.06073 14.8768 6.91099C14.6607 6.76125 14.4308 6.62435 14.1871 6.50028C13.9435 6.37621 13.6507 6.26497 13.3088 6.16657C12.9669 6.06817 12.6309 6.01897 12.3008 6.01897C11.5541 6.01897 10.945 6.20294 10.4734 6.57087C10.0019 6.9388 9.76607 7.41369 9.76607 7.99554C9.76607 8.21801 9.79947 8.42336 9.86628 8.61161C9.93309 8.79985 10.049 8.9774 10.2141 9.14425C10.3791 9.31111 10.5344 9.45229 10.6798 9.5678C10.8252 9.68332 11.0452 9.81594 11.34 9.96568C11.6347 10.1154 11.8725 10.2309 12.0532 10.3122C12.234 10.3935 12.5091 10.5112 12.8785 10.6652C13.2951 10.8363 13.6134 10.9711 13.8335 11.0695C14.0535 11.1679 14.3522 11.3176 14.7295 11.5187C15.1067 11.7198 15.4034 11.9016 15.6196 12.0642C15.8357 12.2267 16.0794 12.4407 16.3505 12.7059C16.6217 12.9712 16.83 13.2428 16.9754 13.5209C17.1208 13.799 17.2446 14.1263 17.3467 14.5028C17.4489 14.8793 17.5 15.2814 17.5 15.7093Z" fill="#757575"/>
</svg>
