<svg width="74" height="74" viewBox="0 0 74 74" fill="none" xmlns="http://www.w3.org/2000/svg">
<path d="M67.5263 37.0003C67.5263 36.6611 67.3413 36.322 67.2488 35.9828C67.1061 35.3845 66.9206 34.7971 66.6938 34.2253C66.5396 33.8553 66.3238 33.4853 66.1388 33.0845C65.9538 32.6836 65.6763 32.1595 65.3988 31.7278C65.1213 31.2961 64.7513 31.0803 64.7513 30.8336C64.7513 30.587 64.1346 30.0628 63.7955 29.6928C63.4563 29.3228 63.148 29.0761 62.8088 28.7678L61.668 27.7503L60.558 27.0103C60.1222 26.7436 59.669 26.5067 59.2013 26.3011L57.9988 25.7461C57.4952 25.5596 56.9803 25.4051 56.4571 25.2836C56.0427 25.1617 55.6203 25.069 55.193 25.0061L54.4838 24.667C53.2257 21.0319 50.8657 17.8794 47.7323 15.6481C44.5989 13.4168 40.848 12.2178 37.0013 12.2178C33.1546 12.2178 29.4037 13.4168 26.2703 15.6481C23.1369 17.8794 20.7769 21.0319 19.5188 24.667L18.9638 24.8211C18.5364 24.884 18.114 24.9767 17.6996 25.0986C17.1765 25.2201 16.6616 25.3746 16.158 25.5611L14.9555 26.1161C14.4878 26.3217 14.0345 26.5586 13.5988 26.8253L12.4888 27.7503L11.348 28.7061C11.0088 29.0145 10.6696 29.292 10.3613 29.6311C10.053 29.9703 9.7138 30.402 9.40547 30.772C9.09713 31.142 8.85047 31.4811 8.6038 31.882C8.35714 32.2828 8.11047 32.7761 7.8638 33.2386C7.61714 33.7011 7.46297 34.0095 7.3088 34.3795C7.082 34.9513 6.89652 35.5386 6.7538 36.137C6.7538 36.4761 6.53797 36.8153 6.4763 37.1545C6.28438 38.1194 6.18118 39.0999 6.16797 40.0836C6.18242 41.025 6.27524 41.9635 6.44547 42.8895C6.44547 43.1978 6.59964 43.4753 6.6613 43.7836C6.8137 44.3894 6.99898 44.9864 7.2163 45.572L7.5863 46.4661C7.85772 47.0607 8.16668 47.6374 8.5113 48.1928L8.94297 48.8711C8.98733 48.9576 9.0389 49.0401 9.09714 49.1178L9.2513 49.3336C10.6873 51.2483 12.5494 52.8024 14.6901 53.8727C16.8308 54.9431 19.1913 55.5003 21.5846 55.5003H30.8346V51.2761C29.8978 51.8196 28.8344 52.1067 27.7513 52.1086C26.0809 52.093 24.4846 51.4168 23.3113 50.2278C22.7479 49.645 22.305 48.9569 22.0078 48.2028C21.7107 47.4487 21.5651 46.6434 21.5794 45.8329C21.5937 45.0225 21.7677 44.2228 22.0913 43.4797C22.4149 42.7365 22.8819 42.0645 23.4655 41.502L32.7155 32.5603C33.8663 31.4511 35.4029 30.832 37.0013 30.8336C38.6342 30.8405 40.1976 31.4947 41.3488 32.6528L50.5988 41.9028C51.7473 43.0582 52.392 44.6212 52.392 46.2503C52.392 47.8795 51.7473 49.4424 50.5988 50.5978C49.4476 51.7559 47.8842 52.4101 46.2513 52.417C45.1667 52.4272 44.1001 52.1392 43.168 51.5845V55.5003H52.418C54.8113 55.5003 57.1718 54.9431 59.3125 53.8727C61.4532 52.8024 63.3153 51.2483 64.7513 49.3336L64.9055 49.1795C64.9637 49.1017 65.0153 49.0192 65.0596 48.9328L65.4913 48.2545C65.8359 47.6991 66.1449 47.1224 66.4163 46.5278L66.7863 45.6336C67.0036 45.048 67.1889 44.451 67.3413 43.8453C67.3413 43.537 67.4955 43.2595 67.5571 42.9511C67.7308 42.0049 67.8236 41.0456 67.8346 40.0836C67.8311 39.0483 67.7278 38.0158 67.5263 37.0003V37.0003Z" fill="#AFAFAF"/>
<path d="M39.1915 34.8111C38.6151 34.2461 37.8402 33.9297 37.0332 33.9297C36.2261 33.9297 35.4512 34.2461 34.8748 34.8111L25.6248 43.7527C25.2977 44.0227 25.0297 44.3573 24.8377 44.7355C24.6458 45.1138 24.5339 45.5276 24.5092 45.951C24.4844 46.3745 24.5473 46.7985 24.6939 47.1965C24.8405 47.5946 25.0676 47.9581 25.3611 48.2643C25.6546 48.5706 26.0081 48.813 26.3996 48.9764C26.791 49.1398 27.212 49.2206 27.6361 49.2139C28.0602 49.2072 28.4784 49.113 28.8645 48.9373C29.2505 48.7616 29.5962 48.5081 29.8798 48.1927L33.919 44.2769V61.6669C33.919 62.4847 34.2439 63.2689 34.8221 63.8472C35.4003 64.4254 36.1846 64.7502 37.0023 64.7502C37.8201 64.7502 38.6043 64.4254 39.1826 63.8472C39.7608 63.2689 40.0857 62.4847 40.0857 61.6669V44.4311L44.0632 48.4394C44.3498 48.7284 44.6908 48.9578 45.0666 49.1143C45.4423 49.2709 45.8453 49.3515 46.2523 49.3515C46.6594 49.3515 47.0624 49.2709 47.4381 49.1143C47.8138 48.9578 48.1549 48.7284 48.4415 48.4394C48.7305 48.1528 48.9599 47.8118 49.1164 47.436C49.273 47.0603 49.3535 46.6573 49.3535 46.2502C49.3535 45.8432 49.273 45.4402 49.1164 45.0645C48.9599 44.6887 48.7305 44.3477 48.4415 44.0611L39.1915 34.8111Z" fill="#AFAFAF"/>
</svg>
