<svg width="24" height="24" viewBox="0 0 24 24" fill="none" xmlns="http://www.w3.org/2000/svg">
<path d="M13.288 9.28921L9.28799 13.2892C9.19426 13.3822 9.11986 13.4928 9.06909 13.6146C9.01833 13.7365 8.99219 13.8672 8.99219 13.9992C8.99219 14.1312 9.01833 14.2619 9.06909 14.3838C9.11986 14.5056 9.19426 14.6162 9.28799 14.7092C9.38095 14.8029 9.49155 14.8773 9.61341 14.9281C9.73527 14.9789 9.86597 15.005 9.99799 15.005C10.13 15.005 10.2607 14.9789 10.3826 14.9281C10.5044 14.8773 10.615 14.8029 10.708 14.7092L14.708 10.7092C14.8963 10.5209 15.0021 10.2655 15.0021 9.99921C15.0021 9.73291 14.8963 9.47751 14.708 9.28921C14.5197 9.1009 14.2643 8.99512 13.998 8.99512C13.7317 8.99512 13.4763 9.1009 13.288 9.28921Z" fill="#757575"/>
<path d="M12.2795 17.3995L10.9995 18.6695C10.281 19.41 9.31498 19.86 8.28583 19.9338C7.25668 20.0076 6.23638 19.6999 5.41954 19.0695C4.98781 18.7138 4.63551 18.2714 4.38538 17.771C4.13526 17.2707 3.99287 16.7234 3.96743 16.1645C3.94198 15.6057 4.03404 15.0477 4.23766 14.5267C4.44128 14.0056 4.75193 13.5331 5.14954 13.1395L6.56954 11.7095C6.66327 11.6166 6.73766 11.506 6.78843 11.3841C6.8392 11.2623 6.86534 11.1316 6.86534 10.9995C6.86534 10.8675 6.8392 10.7368 6.78843 10.615C6.73766 10.4931 6.66327 10.3825 6.56954 10.2895C6.47658 10.1958 6.36598 10.1214 6.24412 10.0707C6.12226 10.0199 5.99155 9.99375 5.85954 9.99375C5.72753 9.99375 5.59682 10.0199 5.47497 10.0707C5.35311 10.1214 5.24251 10.1958 5.14954 10.2895L3.87954 11.5695C2.8097 12.6056 2.15213 13.9946 2.02891 15.4787C1.90569 16.9629 2.3252 18.4413 3.20954 19.6395C3.73442 20.3205 4.39818 20.8819 5.15673 21.2866C5.91528 21.6913 6.75125 21.9299 7.60912 21.9867C8.46699 22.0434 9.32711 21.917 10.1324 21.6157C10.9376 21.3145 11.6695 20.8454 12.2795 20.2395L13.6995 18.8195C13.8878 18.6312 13.9936 18.3759 13.9936 18.1095C13.9936 17.8432 13.8878 17.5879 13.6995 17.3995C13.5112 17.2112 13.2558 17.1055 12.9895 17.1055C12.7232 17.1055 12.4678 17.2112 12.2795 17.3995V17.3995ZM19.6595 3.21955C18.453 2.32601 16.9625 1.90224 15.4664 2.02737C13.9703 2.15251 12.5708 2.818 11.5295 3.89955L10.4495 4.99955C10.3261 5.08929 10.2229 5.20395 10.1466 5.3361C10.0702 5.46826 10.0225 5.61497 10.0065 5.76674C9.99047 5.91851 10.0065 6.07195 10.0535 6.21714C10.1006 6.36232 10.1776 6.49601 10.2795 6.60955C10.3725 6.70328 10.4831 6.77767 10.605 6.82844C10.7268 6.87921 10.8575 6.90535 10.9895 6.90535C11.1216 6.90535 11.2523 6.87921 11.3741 6.82844C11.496 6.77767 11.6066 6.70328 11.6995 6.60955L12.9995 5.29955C13.7141 4.55587 14.679 4.10338 15.7077 4.02951C16.7364 3.95563 17.756 4.26561 18.5695 4.89955C19.0045 5.25535 19.3596 5.6988 19.6117 6.20101C19.8638 6.70322 20.0073 7.25292 20.0328 7.81428C20.0582 8.37564 19.9651 8.93607 19.7595 9.45905C19.554 9.98202 19.2405 10.4558 18.8395 10.8495L17.4195 12.2795C17.3258 12.3725 17.2514 12.4831 17.2006 12.605C17.1499 12.7268 17.1237 12.8575 17.1237 12.9895C17.1237 13.1216 17.1499 13.2523 17.2006 13.3741C17.2514 13.496 17.3258 13.6066 17.4195 13.6995C17.5125 13.7933 17.6231 13.8677 17.745 13.9184C17.8668 13.9692 17.9975 13.9953 18.1295 13.9953C18.2616 13.9953 18.3923 13.9692 18.5141 13.9184C18.636 13.8677 18.7466 13.7933 18.8395 13.6995L20.2595 12.2795C20.8637 11.6697 21.3314 10.9384 21.6316 10.1341C21.9318 9.32982 22.0577 8.47095 22.001 7.61435C21.9443 6.75776 21.7062 5.92299 21.3025 5.16534C20.8989 4.40769 20.3388 3.74445 19.6595 3.21955V3.21955Z" fill="#757575"/>
</svg>
