<svg width="49" height="48" viewBox="0 0 49 48" fill="none" xmlns="http://www.w3.org/2000/svg">
<path d="M13.5159 8.62958C16.5119 5.66352 20.5575 3.99979 24.7734 4C28.9893 3.99979 33.0349 5.66352 36.031 8.62958C39.027 11.5956 40.7313 15.6243 40.7734 19.84C40.7734 30.8 26.7734 43 26.0734 43.52C25.7112 43.8299 25.2501 44.0001 24.7734 44.0001C24.2967 44.0001 23.8357 43.8299 23.4734 43.52L23.4702 43.5172C22.8241 42.9573 8.77344 30.7808 8.77344 19.84C8.8156 15.6243 10.5199 11.5956 13.5159 8.62958Z" fill="#FA776C"/>
<path d="M24.7734 12C23.389 12 22.0356 12.4105 20.8844 13.1797C19.7333 13.9489 18.8361 15.0421 18.3063 16.3212C17.7765 17.6003 17.6378 19.0078 17.9079 20.3656C18.178 21.7235 18.8447 22.9708 19.8237 23.9497C20.8027 24.9287 22.0499 25.5954 23.4078 25.8655C24.7657 26.1356 26.1731 25.997 27.4522 25.4672C28.7313 24.9373 29.8246 24.0401 30.5937 22.889C31.3629 21.7378 31.7734 20.3845 31.7734 19C31.7734 17.1435 31.0359 15.363 29.7232 14.0503C28.4104 12.7375 26.63 12 24.7734 12ZM24.7734 22C24.1801 22 23.6001 21.8241 23.1067 21.4944C22.6134 21.1648 22.2289 20.6962 22.0018 20.1481C21.7747 19.5999 21.7153 18.9967 21.8311 18.4147C21.9468 17.8328 22.2326 17.2982 22.6521 16.8787C23.0717 16.4591 23.6062 16.1734 24.1882 16.0576C24.7701 15.9419 25.3733 16.0013 25.9215 16.2284C26.4697 16.4554 26.9382 16.8399 27.2678 17.3333C27.5975 17.8266 27.7734 18.4067 27.7734 19C27.7734 19.7956 27.4574 20.5587 26.8948 21.1213C26.3322 21.6839 25.5691 22 24.7734 22Z" fill="white"/>
</svg>
