<svg width="48" height="48" viewBox="0 0 48 48" fill="none" xmlns="http://www.w3.org/2000/svg">
<path d="M12.7425 8.62958C15.7385 5.66352 19.7841 3.99979 24 4C28.2159 3.99979 32.2615 5.66352 35.2575 8.62958C38.2535 11.5956 39.9578 15.6243 40 19.84C40 30.8 26 43 25.3 43.52C24.9377 43.8299 24.4767 44.0001 24 44.0001C23.5233 44.0001 23.0623 43.8299 22.7 43.52L22.6967 43.5172C22.0507 42.9573 8 30.7808 8 19.84C8.04216 15.6243 9.74646 11.5956 12.7425 8.62958Z" fill="#757575"/>
<path d="M24 12C22.6155 12 21.2622 12.4105 20.111 13.1797C18.9599 13.9489 18.0627 15.0421 17.5328 16.3212C17.003 17.6003 16.8644 19.0078 17.1345 20.3656C17.4046 21.7235 18.0713 22.9708 19.0503 23.9497C20.0292 24.9287 21.2765 25.5954 22.6344 25.8655C23.9922 26.1356 25.3997 25.997 26.6788 25.4672C27.9579 24.9373 29.0511 24.0401 29.8203 22.889C30.5895 21.7378 31 20.3845 31 19C31 17.1435 30.2625 15.363 28.9497 14.0503C27.637 12.7375 25.8565 12 24 12V12ZM24 22C23.4067 22 22.8266 21.8241 22.3333 21.4944C21.8399 21.1648 21.4554 20.6962 21.2284 20.1481C21.0013 19.5999 20.9419 18.9967 21.0576 18.4147C21.1734 17.8328 21.4591 17.2982 21.8787 16.8787C22.2982 16.4591 22.8328 16.1734 23.4147 16.0576C23.9967 15.9419 24.5999 16.0013 25.1481 16.2284C25.6962 16.4554 26.1648 16.8399 26.4944 17.3333C26.8241 17.8266 27 18.4067 27 19C27 19.7956 26.6839 20.5587 26.1213 21.1213C25.5587 21.6839 24.7957 22 24 22Z" fill="white"/>
</svg>
