<svg width="120" height="120" viewBox="0 0 120 120" fill="none" xmlns="http://www.w3.org/2000/svg">
<path d="M0.999997 27.6619C0.999998 19.889 9.47971 15.0878 16.145 19.087L41.2899 34.1739C47.314 37.7884 51 44.2986 51 51.3238L51 68.6762C51 75.7015 47.314 82.2116 41.2899 85.8261L16.145 100.913C9.47971 104.912 0.999984 100.111 0.999986 92.3381L0.999997 27.6619Z" fill="#E9E9E9"/>
<path d="M104.855 -3.00576e-06C110.151 -1.88027e-06 112.85 6.36198 109.169 10.1701L95.8962 23.9004C92.1279 27.7987 86.9384 30 81.5165 30L56.5397 30C52.9148 30 49.3581 29.0148 46.2498 27.1498L19.5749 11.1449C14.3568 8.01404 16.5766 -2.17645e-05 22.6619 -2.04714e-05L104.855 -3.00576e-06Z" fill="#E9E9E9"/>
<path d="M104.855 120C110.151 120 112.85 113.638 109.169 109.83L95.8962 96.0995C92.1279 92.2013 86.9384 90 81.5165 90L56.5397 90C52.9148 90 49.3581 90.9851 46.2498 92.8501L19.5749 108.855C14.3568 111.986 16.5766 120 22.6619 120L104.855 120Z" fill="#E9E9E9"/>
<rect x="57" y="45" width="30" height="30" rx="15" fill="#E9E9E9"/>
</svg>
